# xmcd
#
# Track frame offsets: 
#        150
#        14736
#        29512
#        43699
#        60180
#        72918
#        85281
#        97197
#        110046
#        124578
#        140378
#
# Disc length: 2016 seconds
#
# Revision: 0
# Processed by: cddbd v1.5.2PL0 Copyright (c) Steve Scherf et al.
# Submitted via: ExactAudioCopy v0.95b4
#
DISCID=9a07de0b
DTITLE=Jeff Griffith - If It Ain't One Thing It's Another
DYEAR=2007
DGENRE=Country
TTITLE0=It Ain't the Clothes That Make the Man (It's the Woman)
TTITLE1=Drinkin' Thing
TTITLE2=Let's Make Love Tonight Like There's No Tomorrow
TTITLE3=She Reminds Me of You
TTITLE4=Holed Up in Some Honky Tonk
TTITLE5=Whiskey Talkin' 
TTITLE6=Tonight Was Made for the Two of Us
TTITLE7=It Was Always So Easy
TTITLE8=Fishin' Forever 
TTITLE9=I'm Your Radio 
TTITLE10=If It Ain't One Thing It's Another
EXTD=
EXTT0=
EXTT1=
EXTT2=
EXTT3=
EXTT4=
EXTT5=
EXTT6=
EXTT7=
EXTT8=
EXTT9=
EXTT10=
PLAYORDER=
